# xmcd
#
# Track frame offsets:
#	183
#	13205
#	28425
#	43293
#	54538
#	70245
#	85365
#	99693
#	111903
#	128055
#	148488
#	160470
#	173045
#	187773
#	199320
#	210118
#	223748
#	236155
#	247088
#	256963
#
# Disc length: 3588 seconds
#
# Revision: 5
# Processed by: cddbd v1.5.2PL0 Copyright (c) Steve Scherf et al.
# Submitted via: audiograbber 1.83.01
#
DISCID=390e0214
DTITLE=Billie Jo Spears - Billie Jo Spears Sings The Country Greats
DYEAR=1991
DGENRE=Country
TTITLE0=57 Chevrolet
TTITLE1=Loving Him Was Easier (Than Anything I'll Ever Do Again)
TTITLE2=(Hey Won't You Play) Another Somebody Done Somebody Wrong Song
TTITLE3=Till Something Better Comes Along
TTITLE4=Sing Me An Old Fashioned Song
TTITLE5=Every Time I Sing A Love Song
TTITLE6=See The Funny Little Clown
TTITLE7=That's What Friends Are For
TTITLE8=Blanket On The Ground
TTITLE9=Ode To Billy Joe
TTITLE10=Misty Blue
TTITLE11=I Don't Wanna Play House
TTITLE12=Hurt
TTITLE13=Stand By Your Man
TTITLE14=He's Got More Love In His Little Finger
TTITLE15=Take Me To Your World
TTITLE16=What I've Got In Mind
TTITLE17=If You Want Me
TTITLE18=Never Did Like Whiskey
TTITLE19=Lonely Hearts Club
EXTD=EMI\nMusic For Pleasure
EXTT0=
EXTT1=
EXTT2=
EXTT3=
EXTT4=
EXTT5=
EXTT6=
EXTT7=
EXTT8=
EXTT9=
EXTT10=
EXTT11=
EXTT12=
EXTT13=
EXTT14=
EXTT15=
EXTT16=
EXTT17=
EXTT18=
EXTT19=
PLAYORDER=
